<svg xmlns="http://www.w3.org/2000/svg" width="400" height="400" fill="none"><g clip-path="url(#a)"><path d="M400 0H0v400h400V0Z" fill="#fff"/><path d="M264 269.333a5.334 5.334 0 1 0 0-10.667 5.334 5.334 0 0 0 0 10.667zM205.334 264a5.334 5.334 0 1 1-10.667-.001 5.334 5.334 0 0 1 10.667.001zM136 269.333a5.334 5.334 0 1 0 0-10.667 5.334 5.334 0 0 0 0 10.667zM269.334 136a5.333 5.333 0 0 0-10.667 0v96a5.333 5.333 0 0 0 10.667 0v-96zm-32 16a5.333 5.333 0 0 0-10.667 0v96a5.333 5.333 0 0 0 10.667 0v-96zm-32-16a5.333 5.333 0 0 0-10.667 0v96a5.333 5.333 0 0 0 10.667 0v-96zm-32 16a5.333 5.333 0 0 0-10.667 0v96a5.333 5.333 0 0 0 10.667 0v-96zm-32-16a5.333 5.333 0 0 0-10.667 0v96a5.333 5.333 0 0 0 10.667 0v-96z" fill="#000"/></g><defs><clipPath id="a"><path fill="#fff" d="M0 0h400v400H0z"/></clipPath></defs></svg>