<svg width="2400" height="2400" fill="none" xmlns="http://www.w3.org/2000/svg"><g clip-path="url(#a)"><mask id="b" style="mask-type:luminance" maskUnits="userSpaceOnUse" x="0" y="0" width="2400" height="2400"><path d="M0 0h2400v2400H0V0Z" fill="#fff"/></mask><g mask="url(#b)"><path d="M2400 0H0v2400h2400V0Z" fill="#fff"/><path d="M1098.46 1089.23c0-5.1-4.13-9.23-9.23-9.23-5.1 0-9.23 4.13-9.23 9.23v166.15c0 5.1 4.13 9.23 9.23 9.23 5.1 0 9.23-4.13 9.23-9.23v-166.15Zm55.38 27.69c0-5.1-4.13-9.23-9.23-9.23-5.1 0-9.23 4.13-9.23 9.23v166.15c0 5.1 4.13 9.23 9.23 9.23 5.1 0 9.23-4.13 9.23-9.23v-166.15Zm55.39-27.69c0-5.1-4.13-9.23-9.23-9.23-5.1 0-9.23 4.13-9.23 9.23v166.15c0 5.1 4.13 9.23 9.23 9.23 5.1 0 9.23-4.13 9.23-9.23v-166.15Zm55.39 27.69c0-5.1-4.13-9.23-9.23-9.23-5.1 0-9.23 4.13-9.23 9.23v166.15c0 5.1 4.13 9.23 9.23 9.23 5.1 0 9.23-4.13 9.23-9.23v-166.15ZM1089.23 1320c5.1 0 9.23-4.13 9.23-9.23 0-5.1-4.13-9.23-9.23-9.23-5.1 0-9.23 4.13-9.23 9.23 0 5.1 4.13 9.23 9.23 9.23Zm120-9.23c0 5.1-4.14 9.23-9.23 9.23-5.1 0-9.23-4.13-9.23-9.23 0-5.1 4.13-9.23 9.23-9.23 5.09 0 9.23 4.13 9.23 9.23ZM1320 1089.23c0-5.1-4.13-9.23-9.23-9.23-5.1 0-9.23 4.13-9.23 9.23v166.15c0 5.1 4.13 9.23 9.23 9.23 5.1 0 9.23-4.13 9.23-9.23v-166.15Zm-9.23 230.77c5.1 0 9.23-4.13 9.23-9.23 0-5.1-4.13-9.23-9.23-9.23-5.1 0-9.23 4.13-9.23 9.23 0 5.1 4.13 9.23 9.23 9.23Z" fill="#000"/></g></g><defs><clipPath id="a"><path fill="#fff" d="M0 0h2400v2400H0z"/></clipPath></defs></svg>