<svg width="400" height="400" fill="none" xmlns="http://www.w3.org/2000/svg"><mask id="a" style="mask-type:luminance" maskUnits="userSpaceOnUse" x="0" y="0" width="400" height="400"><path d="M0 0h400v400H0V0Z" fill="#fff"/></mask><g mask="url(#a)"><path d="M400 0H0v400h400V0Z" fill="#000"/><path d="M264.001 269.333a5.34 5.34 0 0 0 4.994-3.275 5.33 5.33 0 0 0-1.175-5.856 5.34 5.34 0 0 0-3.819-1.536A5.332 5.332 0 0 0 258.74 264a5.332 5.332 0 0 0 5.261 5.333ZM205.335 264a5.325 5.325 0 0 1-1.536 3.819 5.35 5.35 0 0 1-3.798 1.588 5.345 5.345 0 0 1-3.797-1.589 5.325 5.325 0 0 1-1.536-3.819 5.332 5.332 0 0 1 5.334-5.26 5.335 5.335 0 0 1 5.333 5.261Zm-69.334 5.333a5.325 5.325 0 0 0 3.819-1.536 5.346 5.346 0 0 0 1.588-3.797 5.33 5.33 0 0 0-5.407-5.334A5.332 5.332 0 0 0 130.74 264a5.332 5.332 0 0 0 5.261 5.333ZM269.335 136a5.332 5.332 0 1 0-10.667 0v96a5.332 5.332 0 1 0 10.667 0v-96Zm-32 16a5.332 5.332 0 1 0-10.667 0v96a5.332 5.332 0 1 0 10.667 0v-96Zm-32-16a5.332 5.332 0 1 0-10.667 0v96a5.332 5.332 0 1 0 10.667 0v-96Zm-32 16a5.332 5.332 0 1 0-10.667 0v96a5.332 5.332 0 1 0 10.667 0v-96Zm-32-16a5.332 5.332 0 1 0-10.667 0v96a5.332 5.332 0 1 0 10.667 0v-96Z" fill="#fff"/></g></svg>