<svg xmlns="http://www.w3.org/2000/svg" width="2400" height="2400" fill="none"><g clip-path="url(#a)"><path d="M2400 0H0v2400h2400V0Z" fill="#fff"/><path d="M1098.46 1089.23a9.23 9.23 0 1 0-18.46 0v166.15a9.23 9.23 0 1 0 18.46 0v-166.15zm55.38 27.69a9.23 9.23 0 1 0-18.46 0v166.15a9.23 9.23 0 1 0 18.46 0v-166.15zm55.39-27.69a9.23 9.23 0 1 0-18.46 0v166.15a9.23 9.23 0 1 0 18.46 0v-166.15zm55.39 27.69a9.23 9.23 0 1 0-18.46 0v166.15a9.23 9.23 0 1 0 18.46 0v-166.15zM1089.23 1320a9.23 9.23 0 1 0 0-18.46 9.23 9.23 0 1 0 0 18.46zm120-9.23c0 5.1-4.14 9.23-9.23 9.23a9.23 9.23 0 1 1 0-18.46c5.09 0 9.23 4.13 9.23 9.23zM1320 1089.23a9.23 9.23 0 1 0-18.46 0v166.15a9.23 9.23 0 1 0 18.46 0v-166.15zm-9.23 230.77a9.23 9.23 0 1 0 0-18.46 9.23 9.23 0 1 0 0 18.46z" fill="#000"/></g><defs><clipPath id="a"><path fill="#fff" d="M0 0h2400v2400H0z"/></clipPath></defs></svg>