<svg width="2400" height="2400" viewBox="0 0 2400 2400" fill="none" xmlns="http://www.w3.org/2000/svg">
<rect width="2400" height="2400" fill="white"/>
<rect x="1080" y="1080" width="18.4615" height="184.615" rx="9.23076" fill="#0A0A0A"/>
<rect x="1135.38" y="1107.69" width="18.4615" height="184.615" rx="9.23076" fill="#0A0A0A"/>
<rect x="1190.77" y="1080" width="18.4615" height="184.615" rx="9.23076" fill="#0A0A0A"/>
<rect x="1246.16" y="1107.69" width="18.4615" height="184.615" rx="9.23076" fill="#0A0A0A"/>
<ellipse cx="1089.23" cy="1310.77" rx="9.23076" ry="9.23077" fill="#0A0A0A"/>
<path d="M1209.23 1310.77C1209.23 1315.87 1205.09 1320 1200 1320C1194.9 1320 1190.77 1315.87 1190.77 1310.77C1190.77 1305.67 1194.9 1301.54 1200 1301.54C1205.09 1301.54 1209.23 1305.67 1209.23 1310.77Z" fill="#0A0A0A"/>
<rect x="1301.54" y="1080" width="18.4615" height="184.615" rx="9.23076" fill="#0A0A0A"/>
<ellipse cx="1310.77" cy="1310.77" rx="9.23076" ry="9.23077" fill="#0A0A0A"/>
</svg>
