<svg width="2400" height="2400" fill="none" xmlns="http://www.w3.org/2000/svg"><g clip-path="url(#a)"><path d="M2400 0H0v2400h2400V0Z" fill="#0A0A0A"/><path d="M1098.46 1089.23c0-5.1-4.13-9.23-9.23-9.23-5.1 0-9.23 4.13-9.23 9.23v166.15c0 5.1 4.13 9.23 9.23 9.23 5.1 0 9.23-4.13 9.23-9.23v-166.15ZM1153.84 1116.92c0-5.1-4.13-9.23-9.23-9.23-5.1 0-9.23 4.13-9.23 9.23v166.15c0 5.1 4.13 9.24 9.23 9.24 5.1 0 9.23-4.14 9.23-9.24v-166.15ZM1209.23 1089.23c0-5.1-4.13-9.23-9.23-9.23-5.1 0-9.23 4.13-9.23 9.23v166.15c0 5.1 4.13 9.23 9.23 9.23 5.1 0 9.23-4.13 9.23-9.23v-166.15ZM1264.62 1116.92c0-5.1-4.13-9.23-9.23-9.23-5.1 0-9.23 4.13-9.23 9.23v166.15c0 5.1 4.13 9.24 9.23 9.24 5.1 0 9.23-4.14 9.23-9.24v-166.15ZM1089.23 1320c5.1 0 9.23-4.13 9.23-9.23 0-5.1-4.13-9.23-9.23-9.23-5.1 0-9.23 4.13-9.23 9.23 0 5.1 4.13 9.23 9.23 9.23ZM1209.23 1310.77c0 5.1-4.14 9.23-9.23 9.23-5.1 0-9.23-4.13-9.23-9.23 0-5.1 4.13-9.23 9.23-9.23 5.09 0 9.23 4.13 9.23 9.23ZM1320 1089.23c0-5.1-4.13-9.23-9.23-9.23-5.1 0-9.23 4.13-9.23 9.23v166.15c0 5.1 4.13 9.23 9.23 9.23 5.1 0 9.23-4.13 9.23-9.23v-166.15ZM1310.77 1320c5.1 0 9.23-4.13 9.23-9.23 0-5.1-4.13-9.23-9.23-9.23-5.1 0-9.23 4.13-9.23 9.23 0 5.1 4.13 9.23 9.23 9.23Z" fill="#fff"/></g><defs><clipPath id="a"><path fill="#fff" d="M0 0h2400v2400H0z"/></clipPath></defs></svg>