<svg width="140" height="30" fill="none" xmlns="http://www.w3.org/2000/svg"><path d="M22.42 13.371a3.657 3.657 0 0 0-1.047 2.93l-.018-.019a4.343 4.343 0 0 1-4.694 4.694l.018.018A3.68 3.68 0 1 0 20 24.312l.019.018a4.344 4.344 0 0 1 4.694-4.694l-.019-.018a3.672 3.672 0 0 0 1.12-7.24 3.672 3.672 0 0 0-3.392.993h-.002Z" fill="#fff"/><path d="m15.042 18.636-.02-.018A3.63 3.63 0 0 0 19 14.644l.02.018a4.345 4.345 0 0 1 4.693-4.694l-.02-.018a3.678 3.678 0 1 0-3.317-3.318l-.018-.019a4.344 4.344 0 0 1-4.694 4.694l.018.02a3.633 3.633 0 0 0-3.977 3.973l-.018-.018a4.348 4.348 0 0 1-4.694 4.694l.018.018a3.677 3.677 0 1 0 3.318 3.318l.02.018a4.342 4.342 0 0 1 4.693-4.694Z" fill="#fff"/><path d="M8.34 16.629a3.651 3.651 0 0 0 1.045-2.93l.02.019A4.344 4.344 0 0 1 14.1 9.024l-.019-.018a3.677 3.677 0 1 0-3.318-3.318l-.018-.018a4.341 4.341 0 0 1-4.694 4.694l.018.018a3.672 3.672 0 0 0-2.747 6.417 3.67 3.67 0 0 0 5.02-.17H8.34Zm30.977-9.974h2.97v14.453h-2.97V6.655Zm4.652 9.504a5.25 5.25 0 1 1 5.247 5.226 5.184 5.184 0 0 1-5.247-5.226Zm7.524 0a2.28 2.28 0 1 0-2.277 2.34 2.222 2.222 0 0 0 2.277-2.34Zm14.807-4.95v9.4c0 3.326-2.594 4.732-5.227 4.732a5.063 5.063 0 0 1-4.692-2.4l2.534-1.465a2.262 2.262 0 0 0 2.257 1.247 1.973 1.973 0 0 0 2.237-2.118V19.7a3.515 3.515 0 0 1-2.89 1.287 5.03 5.03 0 0 1 0-10.057 3.519 3.519 0 0 1 2.89 1.287v-1.01l2.891.002Zm-2.89 4.75a2.399 2.399 0 1 0-2.395 2.3 2.24 2.24 0 0 0 2.395-2.3Zm4.572.2a5.247 5.247 0 1 1 5.247 5.226 5.184 5.184 0 0 1-5.247-5.226Zm7.524 0a2.28 2.28 0 1 0-2.277 2.34 2.22 2.22 0 0 0 2.277-2.34Zm4.355-7.603a1.781 1.781 0 1 1 1.782 1.782 1.8 1.8 0 0 1-1.782-1.782Zm.3 2.653h2.971v9.9h-2.975l.004-9.9Zm15.795 4.95a4.97 4.97 0 0 1-4.732 5.226 3.713 3.713 0 0 1-2.95-1.208v4.89h-2.97V11.21h2.97v.93a3.717 3.717 0 0 1 2.95-1.207 4.97 4.97 0 0 1 4.732 5.226Zm-2.97 0a2.356 2.356 0 1 0-2.355 2.415 2.258 2.258 0 0 0 2.355-2.415Zm12.135 1.979c0 2.277-1.979 3.247-4.117 3.247a4.333 4.333 0 0 1-4.257-2.356l2.573-1.465a1.627 1.627 0 0 0 1.68 1.168c.712 0 1.069-.218 1.069-.613 0-1.09-4.87-.515-4.87-3.94 0-2.16 1.821-3.247 3.88-3.247a4.33 4.33 0 0 1 3.86 2.118l-2.534 1.366a1.435 1.435 0 0 0-1.326-.871c-.515 0-.832.2-.832.554.004 1.129 4.874.376 4.874 4.039Zm10.849-6.93v9.9H113v-.93a3.388 3.388 0 0 1-2.83 1.208c-2 0-3.7-1.425-3.7-4.1v-6.077h2.97v5.642a1.627 1.627 0 0 0 1.028 1.69c.221.087.458.125.694.11 1.089 0 1.841-.633 1.841-2.04v-5.4l2.967-.003ZM133 15.03v6.078h-2.97v-5.821c0-.99-.475-1.623-1.425-1.623-.99 0-1.545.693-1.545 1.86v5.584h-2.969v-5.821c0-.99-.475-1.623-1.426-1.623-.99 0-1.544.693-1.544 1.86v5.584h-2.97v-9.9h2.97v.91a3.043 3.043 0 0 1 2.653-1.187 2.952 2.952 0 0 1 2.593 1.306 3.262 3.262 0 0 1 2.871-1.306c2.273 0 3.762 1.624 3.762 4.099Zm2.512-3.882a2.204 2.204 0 0 0 2.16-2.634 2.197 2.197 0 0 0-3.002-1.604 2.202 2.202 0 0 0 .842 4.238Z" fill="#fff"/></svg>