<svg width="400" height="400" fill="none" xmlns="http://www.w3.org/2000/svg"><g clip-path="url(#a)"><path d="M400 0H0v400h400V0Z" fill="#fff"/><path d="M264 269.333a5.334 5.334 0 1 0 0-10.667 5.334 5.334 0 0 0 0 10.667ZM205.334 264a5.334 5.334 0 1 1-10.667-.001 5.334 5.334 0 0 1 10.667.001ZM136 269.333a5.334 5.334 0 1 0 0-10.667 5.334 5.334 0 0 0 0 10.667ZM269.334 136a5.333 5.333 0 0 0-10.667 0v96a5.333 5.333 0 0 0 10.667 0v-96ZM237.334 152a5.333 5.333 0 0 0-10.667 0v96a5.333 5.333 0 0 0 10.667 0v-96ZM205.334 136a5.333 5.333 0 0 0-10.667 0v96a5.333 5.333 0 0 0 10.667 0v-96ZM173.334 152a5.333 5.333 0 0 0-10.667 0v96a5.333 5.333 0 0 0 10.667 0v-96ZM141.334 136a5.333 5.333 0 0 0-10.667 0v96a5.333 5.333 0 0 0 10.667 0v-96Z" fill="#0A0A0A"/></g><defs><clipPath id="a"><path fill="#fff" d="M0 0h400v400H0z"/></clipPath></defs></svg>