<svg width="280" height="60" fill="none" xmlns="http://www.w3.org/2000/svg"><path d="M44.84 26.742a7.31 7.31 0 0 0-2.094 5.86l-.036-.038a8.688 8.688 0 0 1-9.388 9.388l.036.036A7.358 7.358 0 1 0 40 48.624l.038.036a8.687 8.687 0 0 1 9.388-9.388l-.038-.036a7.344 7.344 0 0 0 2.24-14.48 7.343 7.343 0 0 0-6.784 1.986h-.004Z" fill="#0A0A0A"/><path d="m30.084 37.272-.038-.036A7.264 7.264 0 0 0 38 29.288l.04.036a8.69 8.69 0 0 1 9.386-9.388l-.038-.036a7.356 7.356 0 1 0-6.636-6.636l-.036-.038a8.688 8.688 0 0 1-9.388 9.388l.036.04A7.263 7.263 0 0 0 23.41 30.6l-.036-.036a8.693 8.693 0 0 1-9.388 9.388l.036.036a7.354 7.354 0 1 0 6.636 6.636l.04.036a8.688 8.688 0 0 1 9.386-9.388Z" fill="#0A0A0A"/><path d="M16.68 33.258a7.305 7.305 0 0 0 2.09-5.86l.04.038a8.688 8.688 0 0 1 9.39-9.388l-.038-.036a7.355 7.355 0 1 0-6.636-6.636l-.036-.036a8.685 8.685 0 0 1-9.388 9.388l.036.036a7.342 7.342 0 1 0 4.546 12.494h-.004ZM78.634 13.31h5.94v28.906h-5.94V13.31Zm9.304 19.008A10.496 10.496 0 1 1 98.432 42.77a10.374 10.374 0 0 1-10.494-10.452Zm15.048 0a4.56 4.56 0 0 0-2.898-4.123 4.555 4.555 0 0 0-4.925 1.066 4.558 4.558 0 0 0 3.269 7.737 4.446 4.446 0 0 0 4.277-2.88c.216-.575.31-1.188.277-1.8Zm29.614-9.9v18.8c0 6.652-5.188 9.464-10.454 9.464a10.127 10.127 0 0 1-9.384-4.8l5.068-2.93a4.524 4.524 0 0 0 4.514 2.494 3.945 3.945 0 0 0 4.474-4.236V39.4a7.036 7.036 0 0 1-5.782 2.574 10.06 10.06 0 0 1 0-20.114 7.035 7.035 0 0 1 5.78 2.574v-2.02l5.784.004Zm-5.78 9.5a4.8 4.8 0 1 0-4.79 4.6 4.485 4.485 0 0 0 4.459-2.773c.236-.58.349-1.202.331-1.827Zm9.144.4a10.497 10.497 0 0 1 6.449-9.725 10.493 10.493 0 1 1 4.045 20.177 10.375 10.375 0 0 1-10.494-10.452Zm15.048 0a4.56 4.56 0 0 0-2.898-4.123 4.554 4.554 0 0 0-4.925 1.066 4.561 4.561 0 0 0-.932 4.953 4.56 4.56 0 0 0 4.201 2.784 4.444 4.444 0 0 0 4.278-2.88 4.453 4.453 0 0 0 .276-1.8Zm8.71-15.206a3.561 3.561 0 0 1 2.2-3.293 3.562 3.562 0 0 1 4.86 2.598 3.567 3.567 0 0 1-3.496 4.26 3.602 3.602 0 0 1-3.564-3.565Zm.6 5.306h5.942v19.8h-5.95l.008-19.8Zm31.59 9.902a9.936 9.936 0 0 1-5.686 9.51 9.941 9.941 0 0 1-3.778.94 7.43 7.43 0 0 1-5.9-2.416v9.782h-5.94V22.42h5.94v1.86a7.438 7.438 0 0 1 5.9-2.414 9.946 9.946 0 0 1 6.907 3.258 9.95 9.95 0 0 1 2.557 7.196Zm-5.94 0a4.717 4.717 0 0 0-2.988-4.27 4.712 4.712 0 1 0-1.722 9.098 4.52 4.52 0 0 0 4.71-4.828Zm24.27 3.956c0 4.554-3.958 6.494-8.234 6.494a8.668 8.668 0 0 1-8.514-4.712l5.146-2.93a3.251 3.251 0 0 0 3.36 2.336c1.424 0 2.138-.436 2.138-1.226 0-2.18-9.74-1.03-9.74-7.88 0-4.32 3.642-6.494 7.76-6.494a8.658 8.658 0 0 1 7.72 4.236l-5.068 2.732a2.874 2.874 0 0 0-2.652-1.742c-1.03 0-1.664.4-1.664 1.108.008 2.258 9.748.752 9.748 8.078Zm21.698-13.858v19.8H226v-1.862a6.776 6.776 0 0 1-5.66 2.416c-4 0-7.4-2.85-7.4-8.2V22.418h5.94v11.284a3.242 3.242 0 0 0 .888 2.6 3.26 3.26 0 0 0 2.556 1c2.178 0 3.682-1.266 3.682-4.078v-10.8l5.934-.006ZM266 30.06v12.156h-5.94V30.574c0-1.98-.95-3.246-2.85-3.246-1.98 0-3.09 1.386-3.09 3.72v11.168h-5.938V30.574c0-1.98-.95-3.246-2.852-3.246-1.98 0-3.088 1.386-3.088 3.72v11.168h-5.94v-19.8h5.94v1.82a6.082 6.082 0 0 1 5.306-2.374 5.898 5.898 0 0 1 5.186 2.612 6.522 6.522 0 0 1 5.742-2.612c4.546 0 7.524 3.248 7.524 8.198Zm5.024-7.764a4.409 4.409 0 1 0 0-8.818 4.409 4.409 0 0 0 0 8.818Z" fill="#0A0A0A"/></svg>