<svg width="400" height="400" viewBox="0 0 400 400" fill="none" xmlns="http://www.w3.org/2000/svg">
<rect width="400" height="400" fill="white"/>
<path d="M264 269.333C266.946 269.333 269.334 266.945 269.334 264C269.334 261.054 266.946 258.667 264 258.667C261.055 258.667 258.667 261.054 258.667 264C258.667 266.945 261.055 269.333 264 269.333Z" fill="#0A0A0A"/>
<path d="M205.334 264C205.334 266.945 202.946 269.333 200 269.333C197.055 269.333 194.667 266.945 194.667 264C194.667 261.055 197.055 258.667 200 258.667C202.946 258.667 205.334 261.055 205.334 264Z" fill="#0A0A0A"/>
<path d="M136 269.333C138.946 269.333 141.334 266.945 141.334 264C141.334 261.054 138.946 258.667 136 258.667C133.055 258.667 130.667 261.054 130.667 264C130.667 266.945 133.055 269.333 136 269.333Z" fill="#0A0A0A"/>
<path d="M269.334 136C269.334 133.054 266.946 130.667 264 130.667C261.055 130.667 258.667 133.054 258.667 136V232C258.667 234.945 261.055 237.333 264 237.333C266.946 237.333 269.334 234.945 269.334 232V136Z" fill="#0A0A0A"/>
<path d="M237.334 152C237.334 149.054 234.946 146.667 232 146.667C229.055 146.667 226.667 149.054 226.667 152V248C226.667 250.945 229.055 253.333 232 253.333C234.946 253.333 237.334 250.945 237.334 248V152Z" fill="#0A0A0A"/>
<path d="M205.334 136C205.334 133.054 202.946 130.667 200 130.667C197.055 130.667 194.667 133.054 194.667 136V232C194.667 234.945 197.055 237.333 200 237.333C202.946 237.333 205.334 234.945 205.334 232V136Z" fill="#0A0A0A"/>
<path d="M173.334 152C173.334 149.054 170.946 146.667 168 146.667C165.055 146.667 162.667 149.054 162.667 152V248C162.667 250.945 165.055 253.333 168 253.333C170.946 253.333 173.334 250.945 173.334 248V152Z" fill="#0A0A0A"/>
<path d="M141.334 136C141.334 133.054 138.946 130.667 136 130.667C133.055 130.667 130.667 133.054 130.667 136V232C130.667 234.945 133.055 237.333 136 237.333C138.946 237.333 141.334 234.945 141.334 232V136Z" fill="#0A0A0A"/>
</svg>
