<svg width="200" height="200" fill="none" xmlns="http://www.w3.org/2000/svg"><g clip-path="url(#a)"><mask id="b" style="mask-type:luminance" maskUnits="userSpaceOnUse" x="0" y="0" width="200" height="200"><path d="M0 0h200v200H0V0Z" fill="#fff"/></mask><g mask="url(#b)"><mask id="c" style="mask-type:luminance" maskUnits="userSpaceOnUse" x="0" y="0" width="200" height="200"><path d="M0 0h200v200H0V0Z" fill="#fff"/></mask><g mask="url(#c)"><path d="M192.306 200a7.704 7.704 0 0 0 5.44-2.253 7.687 7.687 0 0 0 1.669-8.383A7.693 7.693 0 1 0 192.306 200Zm-84.616-7.692A7.689 7.689 0 0 1 99.998 200a7.703 7.703 0 0 1-5.44-2.253 7.686 7.686 0 0 1-2.252-5.439 7.691 7.691 0 1 1 15.384 0ZM7.69 200a7.689 7.689 0 0 0 7.692-7.692 7.695 7.695 0 0 0-4.749-7.108 7.686 7.686 0 0 0-4.444-.438 7.686 7.686 0 0 0-6.045 6.044A7.692 7.692 0 0 0 7.69 200ZM199.998 7.692A7.693 7.693 0 0 0 195.251.58a7.689 7.689 0 0 0-8.385 1.67 7.705 7.705 0 0 0-1.668 2.497 7.705 7.705 0 0 0-.585 2.944v138.462a7.693 7.693 0 0 0 15.385 0V7.692ZM153.844 30.77a7.693 7.693 0 0 0-15.385 0v138.46a7.693 7.693 0 0 0 15.385 0V30.769ZM107.69 7.692a7.685 7.685 0 0 0-4.748-7.107 7.69 7.69 0 0 0-8.383 1.668 7.692 7.692 0 0 0-2.253 5.439v138.462a7.693 7.693 0 0 0 15.384 0V7.692ZM61.537 30.77a7.692 7.692 0 0 0-15.385 0v138.46a7.691 7.691 0 1 0 15.385 0V30.769ZM15.383 7.692a7.693 7.693 0 0 0-15.385 0v138.462a7.691 7.691 0 0 0 14.8 2.943 7.686 7.686 0 0 0 .585-2.943V7.692Z" fill="#fff"/></g></g></g><defs><clipPath id="a"><path fill="#fff" d="M0 0h200v200H0z"/></clipPath></defs></svg>