<svg width="200" height="200" fill="none" xmlns="http://www.w3.org/2000/svg"><g clip-path="url(#a)" fill="#000"><path d="M192.308 200a7.692 7.692 0 1 0 0-15.385 7.692 7.692 0 0 0 0 15.385ZM107.692 192.308a7.692 7.692 0 1 1-15.384 0 7.692 7.692 0 0 1 15.384 0ZM7.692 200a7.692 7.692 0 1 0 0-15.385 7.692 7.692 0 0 0 0 15.385ZM200 7.692a7.692 7.692 0 1 0-15.385 0v138.462a7.692 7.692 0 0 0 15.385 0V7.692ZM153.846 30.77a7.693 7.693 0 0 0-15.385 0V169.23a7.692 7.692 0 0 0 15.385 0V30.769ZM107.692 7.692a7.692 7.692 0 1 0-15.384 0v138.462a7.692 7.692 0 0 0 15.384 0V7.692ZM61.539 30.77a7.692 7.692 0 0 0-15.385 0V169.23a7.692 7.692 0 0 0 15.385 0V30.769ZM15.385 7.692A7.692 7.692 0 0 0 0 7.692v138.462a7.692 7.692 0 0 0 15.385 0V7.692Z"/></g><defs><clipPath id="a"><path fill="#fff" d="M0 0h200v200H0z"/></clipPath></defs></svg>