<svg width="200" height="200" fill="none" xmlns="http://www.w3.org/2000/svg"><g clip-path="url(#a)"><mask id="b" style="mask-type:luminance" maskUnits="userSpaceOnUse" x="0" y="0" width="200" height="200"><path d="M0 0h200v200H0V0Z" fill="#fff"/></mask><g mask="url(#b)"><path d="M192.308 200a7.692 7.692 0 1 0 .002-15.386 7.692 7.692 0 0 0-.002 15.386Zm-84.616-7.692A7.69 7.69 0 0 1 100 200a7.69 7.69 0 0 1-7.692-7.692 7.69 7.69 0 1 1 15.384 0ZM7.692 200a7.69 7.69 0 0 0 7.692-7.692A7.693 7.693 0 1 0 7.692 200ZM200 7.692a7.69 7.69 0 0 0-13.132-5.44 7.69 7.69 0 0 0-2.253 5.44v138.462a7.692 7.692 0 1 0 15.385 0V7.692ZM153.846 30.77a7.693 7.693 0 0 0-15.385 0v138.46a7.692 7.692 0 1 0 15.385 0V30.769v.001ZM107.692 7.692A7.69 7.69 0 0 0 100 0a7.692 7.692 0 0 0-7.692 7.692v138.462a7.69 7.69 0 1 0 15.384 0V7.692ZM61.539 30.77a7.692 7.692 0 1 0-15.385 0v138.46a7.69 7.69 0 0 0 13.132 5.439 7.69 7.69 0 0 0 2.253-5.439V30.769v.001ZM15.385 7.692A7.692 7.692 0 1 0 0 7.692v138.462a7.69 7.69 0 0 0 13.132 5.439 7.69 7.69 0 0 0 2.253-5.439V7.692Z" fill="#fff"/></g></g><defs><clipPath id="a"><path fill="#fff" d="M0 0h200v200H0z"/></clipPath></defs></svg>