<svg xmlns="http://www.w3.org/2000/svg" width="200" height="200" fill="none"><g clip-path="url(#a)" fill="#fff"><path d="M192.308 200a7.692 7.692 0 1 0 0-15.385 7.692 7.692 0 0 0 0 15.385zm-84.616-7.692a7.692 7.692 0 1 1-15.384 0 7.692 7.692 0 0 1 15.384 0zM7.692 200a7.692 7.692 0 1 0 0-15.385 7.692 7.692 0 0 0 0 15.385zM200 7.692a7.692 7.692 0 1 0-15.385 0v138.462a7.692 7.692 0 0 0 15.385 0V7.692zM153.846 30.77a7.693 7.693 0 0 0-15.385 0v138.46a7.692 7.692 0 0 0 15.385 0V30.769zM107.692 7.692a7.692 7.692 0 1 0-15.384 0v138.462a7.692 7.692 0 0 0 15.384 0V7.692zM61.539 30.77a7.692 7.692 0 0 0-15.385 0v138.46a7.692 7.692 0 0 0 15.385 0V30.769zM15.385 7.692A7.692 7.692 0 0 0 0 7.692v138.462a7.692 7.692 0 0 0 15.385 0V7.692z"/></g><defs><clipPath id="a"><path fill="#fff" d="M0 0h200v200H0z"/></clipPath></defs></svg>