<svg width="48" height="48" fill="none" xmlns="http://www.w3.org/2000/svg"><path d="m20.46 34.92 16.98-16.98-2.76-2.7-14.22 14.22-7.2-7.2-2.7 2.7 9.9 9.96ZM24 48c-3.28 0-6.38-.63-9.3-1.89-2.92-1.26-5.47-2.98-7.65-5.16-2.18-2.18-3.9-4.73-5.16-7.65C.63 30.38 0 27.28 0 24c0-3.32.63-6.44 1.89-9.36 1.26-2.92 2.98-5.46 5.16-7.62s4.73-3.87 7.65-5.13C17.62.63 20.72 0 24 0c3.32 0 6.44.63 9.36 1.89 2.92 1.26 5.46 2.97 7.62 5.13 2.16 2.16 3.87 4.7 5.13 7.62C47.37 17.56 48 20.68 48 24c0 3.28-.63 6.38-1.89 9.3-1.26 2.92-2.97 5.47-5.13 7.65-2.16 2.18-4.7 3.9-7.62 5.16C30.44 47.37 27.32 48 24 48Z" fill="#000"/></svg>