<svg width="160" height="120" viewBox="0 0 160 120" fill="none" xmlns="http://www.w3.org/2000/svg">
<g clip-path="url(#clip0_2424_22)">
<path d="M30 0.5C13.7076 0.5 0.5 13.7076 0.5 30C0.5 46.2924 13.7076 59.5 30 59.5C46.2924 59.5 59.5 46.2924 59.5 30C59.5 13.7076 46.2924 0.5 30 0.5Z" fill="black" stroke="black"/>
<path d="M80.8745 0.484863L14.8745 119.485" stroke="black" stroke-width="2"/>
<path d="M108 0.5C91.7076 0.5 78.5 13.7076 78.5 30C78.5 46.2924 91.7076 59.5 108 59.5C124.292 59.5 137.5 46.2924 137.5 30C137.5 13.7076 124.292 0.5 108 0.5Z" fill="black" stroke="black"/>
<path d="M158.875 0.484863L92.8745 119.485" stroke="black" stroke-width="2"/>
</g>
<defs>
<clipPath id="clip0_2424_22">
<rect width="160" height="120" fill="white"/>
</clipPath>
</defs>
</svg>
