<svg width="48" height="48" viewBox="0 0 48 48" fill="none" xmlns="http://www.w3.org/2000/svg">
<path d="M9.02008 43C7.92025 43 6.9752 42.605 6.18492 41.8151C5.39497 41.0248 5 40.0797 5 38.9799V9.04901C5 7.9414 5.39497 6.98975 6.18492 6.19405C6.9752 5.39802 7.92025 5 9.02008 5H22.9199V9.04901H9.02008V38.9799H38.951V25.0801H43V38.9799C43 40.0797 42.602 41.0248 41.8059 41.8151C41.0103 42.605 40.0586 43 38.951 43H9.02008ZM19.6721 31.1696L16.8811 28.3279L36.16 9.04901H25.9646V5H43V22.0354H38.951V11.8908L19.6721 31.1696Z" fill="black"/>
</svg>
